<svg xmlns="http://www.w3.org/2000/svg" fill="none" viewBox="0 0 18 18">
  <g class="v_02">
    <path fill="#000" d="M.123 11.944l1.839 3.114a.917.917 0 00.558.419c.235.061.486.029.697-.09l1.284-.726a7.46 7.46 0 001.742 1V17.1a.89.89 0 00.269.636.93.93 0 00.65.264h3.677a.93.93 0 00.65-.264.89.89 0 00.27-.636v-1.438A7.477 7.477 0 0013.5 14.66l1.284.725a.933.933 0 001.255-.328l1.839-3.114a.887.887 0 00.09-.682.906.906 0 00-.426-.548l-1.26-.713a6.772 6.772 0 00-.003-2.002l1.262-.713a.892.892 0 00.335-1.23l-1.838-3.114a.917.917 0 00-.559-.419.937.937 0 00-.697.09l-1.284.726a7.422 7.422 0 00-1.74-1V.9a.89.89 0 00-.27-.636.93.93 0 00-.65-.264H7.161a.93.93 0 00-.65.264.89.89 0 00-.27.636v1.438A7.478 7.478 0 004.5 3.34l-1.283-.725a.932.932 0 00-1.255.328L.123 6.056a.887.887 0 00-.09.682c.062.23.215.427.426.547L1.719 8c-.098.664-.098 1.338 0 2.002l-1.26.713a.892.892 0 00-.336 1.23zM9 5.4c2.027 0 3.677 1.615 3.677 3.6S11.027 12.6 9 12.6c-2.028 0-3.678-1.615-3.678-3.6S6.972 5.4 9 5.4z" class="Vector"/>
  </g>
</svg>
